<?xml version="1.0" encoding="UTF-8"?>
<svg width="250px" height="72px" viewBox="0 0 250 72" version="1.1" xmlns="http://www.w3.org/2000/svg" xmlns:xlink="http://www.w3.org/1999/xlink">
    <!-- Generator: Sketch 47.1 (45422) - http://www.bohemiancoding.com/sketch -->
    <title>Custom/Logo/Full Color</title>
    <desc>Created with Sketch.</desc>
    <defs></defs>
    <g id="Symbols" stroke="none" stroke-width="1" fill="none" fill-rule="evenodd">
        <g id="Custom/Logo/Full-Color">
            <g id="Logo/Full-Color-Small">
                <g id="Logo/Full-Color">
                    <g>
                        <g>
                            <g id="OrthoBanc">
                                <g id="Ortho" transform="translate(0.000000, 5.226164)" fill="#2F4852">
                                    <path d="M15.1772563,31.7895957 C12.9566451,31.7895957 10.9236159,31.3497797 9.07810791,30.4701344 C7.23259989,29.5904892 5.64968791,28.4224532 4.32932445,26.9659913 C3.008961,25.5095295 1.98869545,23.8439966 1.2684972,21.9693428 C0.548298951,20.0946889 0.188205229,18.1768026 0.188205229,16.2156263 C0.188205229,14.1679275 0.570804809,12.2067806 1.33601545,10.3321267 C2.10122609,8.45747287 3.1590014,6.79915012 4.50937311,5.3571087 C5.85974483,3.91506728 7.45015877,2.76866155 9.28066265,1.91785711 C11.1111665,1.06705267 13.091682,0.641656833 15.2222685,0.641656833 C17.4428798,0.641656833 19.4759089,1.09589307 21.3214169,2.00437916 C23.1669249,2.91286525 24.742335,4.10253158 26.0476943,5.57341383 C27.3530536,7.04429608 28.3658172,8.70982893 29.0860154,10.5700624 C29.8062137,12.4302958 30.1663074,14.3265518 30.1663074,16.2588873 C30.1663074,18.3065861 29.7837078,20.267733 29.0184972,22.1423869 C28.2532866,24.0170407 27.2030132,25.6681534 25.8676456,27.0957744 C24.532278,28.5233954 22.949366,29.662591 21.1188622,30.5133955 C19.2883583,31.3641999 17.3078428,31.7895957 15.1772563,31.7895957 Z M3.33905681,16.2156263 C3.33905681,17.8883943 3.62413101,19.4962464 4.19428795,21.0392307 C4.7644449,22.582215 5.57465578,23.9521338 6.62494489,25.1490282 C7.675234,26.3459226 8.92055812,27.2976557 10.3609546,28.004256 C11.8013511,28.7108562 13.406769,29.0641511 15.1772563,29.0641511 C16.9777519,29.0641511 18.6131776,28.6892259 20.0835824,27.9393644 C21.5539871,27.1895029 22.7993112,26.2089294 23.8195921,24.9976146 C24.8398729,23.7862998 25.627578,22.416381 26.1827308,20.8878171 C26.7378836,19.3592532 27.0154558,17.8018719 27.0154558,16.2156263 C27.0154558,14.5428582 26.7228797,12.9350062 26.1377186,11.3920219 C25.5525575,9.84903754 24.7348447,8.48632884 23.6845556,7.30385488 C22.6342665,6.12138091 21.3889424,5.17685795 19.9485459,4.47025766 C18.5081494,3.76365736 16.9177354,3.41036251 15.1772563,3.41036251 C13.3767607,3.41036251 11.741335,3.77807756 10.2709303,4.51351868 C8.80052553,5.24895981 7.55520141,6.22232317 6.53492056,7.43363796 C5.51463971,8.64495275 4.72693469,10.0148715 4.17178187,11.5434355 C3.61662905,13.0719994 3.33905681,14.6293807 3.33905681,16.2156263 Z" id="Combined-Shape"></path>
                                    <path d="M48.3892862,11.8462626 C46.3187163,11.9039443 44.5182477,12.4519118 42.9878264,13.4901816 C41.4574051,14.5284515 40.3771239,15.956051 39.7469505,17.7730232 L39.7469505,31.7895957 L36.6861232,31.7895957 L36.6861232,9.25060106 L39.5669018,9.25060106 L39.5669018,14.6582293 C40.4371414,12.9277796 41.607446,11.572281 43.0778507,10.5916929 C44.5482555,9.61110471 46.1236655,9.12081798 47.8041281,9.12081798 C48.0441942,9.12081798 48.2392449,9.13523818 48.3892862,9.16407901 L48.3892862,11.8462626 Z" id="Path"></path>
                                    <path d="M66.7593854,30.4485039 C66.5793358,30.5350264 66.3167675,30.650388 65.9716725,30.7945921 C65.6265775,30.9387963 65.228974,31.0829983 64.7788501,31.2272024 C64.3287262,31.3714065 63.8185934,31.5011883 63.2484365,31.6165516 C62.6782795,31.731915 62.0781233,31.7895957 61.4479498,31.7895957 C60.7877681,31.7895957 60.1576041,31.7030746 59.5574389,31.5300296 C58.9572737,31.3569846 58.432137,31.090211 57.9820131,30.7297006 C57.5318892,30.3691903 57.1717955,29.914954 56.9017211,29.3669783 C56.6316468,28.8190025 56.4966116,28.1845138 56.4966116,27.4634931 L56.4966116,11.3271303 L53.2557357,11.3271303 L53.2557357,8.9910349 L56.4966116,8.9910349 L56.4966116,1.37709428 L59.5574389,1.37709428 L59.5574389,8.9910349 L64.9588987,8.9910349 L64.9588987,11.3271303 L59.5574389,11.3271303 L59.5574389,26.6415336 C59.6174554,27.4779176 59.9250355,28.0907761 60.4801883,28.4801272 C61.0353411,28.8694784 61.6730071,29.0641511 62.3932053,29.0641511 C63.2634449,29.0641511 64.028644,28.9271592 64.6888257,28.6531713 C65.3490075,28.3791835 65.7691168,28.1845108 65.9491664,28.0691475 L66.7593854,30.4485039 Z" id="Path"></path>
                                    <path d="M91.5091282,31.7895957 L88.4483009,31.7895957 L88.4483009,19.2006371 C88.4483009,16.6338034 87.9906818,14.7159171 87.0754299,13.4469206 C86.1601779,12.1779242 84.8173284,11.5434355 83.0468411,11.5434355 C82.1766015,11.5434355 81.313877,11.7092677 80.4586416,12.0409373 C79.6034061,12.3726068 78.8006972,12.826843 78.0504907,13.4036596 C77.3002842,13.9804762 76.6476143,14.6582255 76.0924615,15.4369278 C75.5373087,16.2156302 75.1247013,17.0664219 74.854627,17.9893284 L74.854627,31.7895957 L71.7937997,31.7895957 L71.7937997,0.20904657 L74.854627,0.20904657 L74.854627,14.3554022 C75.784883,12.6537933 77.0752189,11.3127149 78.7256732,10.3321267 C80.3761275,9.35153855 82.1615922,8.86125182 84.0821209,8.86125182 C85.4324926,8.86125182 86.5727894,9.09918509 87.5030454,9.57505876 C88.4333015,10.0509324 89.1985007,10.7142615 89.7986659,11.565066 C90.3988311,12.4158704 90.8339443,13.4397045 91.1040187,14.6365988 C91.374093,15.8334932 91.5091282,17.1529413 91.5091282,18.5949827 L91.5091282,31.7895957 Z" id="Path"></path>
                                    <path d="M107.424403,31.7895957 C105.713932,31.7895957 104.153526,31.4795615 102.743138,30.8594837 C101.332749,30.2394059 100.109931,29.3958243 99.0746461,28.3287136 C98.0393611,27.261603 97.2366522,26.021466 96.6664952,24.6082654 C96.0963383,23.1950648 95.8112641,21.7097844 95.8112641,20.1523797 C95.8112641,18.5661341 96.1038402,17.0664335 96.6890013,15.6532329 C97.2741624,14.2400324 98.0843732,12.9998953 99.1196582,11.9327847 C100.154943,10.865674 101.377761,10.0148824 102.78815,9.38038414 C104.198538,8.74588592 105.74394,8.42864156 107.424403,8.42864156 C109.104865,8.42864156 110.65777,8.74588592 112.083162,9.38038414 C113.508554,10.0148824 114.738874,10.865674 115.774159,11.9327847 C116.809444,12.9998953 117.619655,14.2400324 118.204816,15.6532329 C118.789977,17.0664335 119.082554,18.5661341 119.082554,20.1523797 C119.082554,21.7097844 118.797479,23.1950648 118.227322,24.6082654 C117.657166,26.021466 116.854457,27.261603 115.819172,28.3287136 C114.783887,29.3958243 113.553566,30.2394059 112.128174,30.8594837 C110.702782,31.4795615 109.134874,31.7895957 107.424403,31.7895957 Z M98.9171035,20.1956407 C98.9171035,21.4646372 99.1421621,22.6398833 99.592286,23.7214143 C100.04241,24.8029454 100.650068,25.7546785 101.415279,26.5766421 C102.180489,27.3986057 103.080724,28.0403045 104.116009,28.5017578 C105.151294,28.963211 106.254081,29.1939342 107.424403,29.1939342 C108.594725,29.1939342 109.697512,28.9560009 110.732797,28.4801272 C111.768082,28.0042536 112.675818,27.3553447 113.456033,26.5333811 C114.236248,25.7114174 114.851408,24.7524743 115.301532,23.6565228 C115.751656,22.5605713 115.976714,21.3781151 115.976714,20.1091187 C115.976714,18.868963 115.751656,17.6937169 115.301532,16.583345 C114.851408,15.4729731 114.236248,14.5068199 113.456033,13.6848563 C112.675818,12.8628926 111.768082,12.2139837 110.732797,11.7381101 C109.697512,11.2622364 108.594725,11.0243031 107.424403,11.0243031 C106.254081,11.0243031 105.158796,11.2622364 104.138515,11.7381101 C103.118234,12.2139837 102.218,12.8701027 101.437785,13.7064868 C100.65757,14.5428708 100.04241,15.5162341 99.592286,16.626606 C99.1421621,17.7369779 98.9171035,18.9266443 98.9171035,20.1956407 Z" id="Combined-Shape"></path>
                                </g>
                                <g id="Banc" transform="translate(141.380493, 5.806849)" fill="#2F4852">
                                    <path d="M83.6803344,19.3298395 C83.6803344,17.7116561 83.9711484,16.1817602 84.552785,14.7401059 C85.1344216,13.2984516 85.9685985,12.0333454 87.0553406,10.9447493 C88.1420827,9.85615321 89.4507454,8.99558676 90.9813681,8.36302417 C92.5119908,7.73046157 94.2262624,7.41418501 96.1242346,7.41418501 C98.6038433,7.41418501 100.73903,7.93640909 102.529858,8.98087292 C104.320687,10.0253367 105.659962,11.4154825 106.547723,13.151352 L101.634449,14.6518418 C101.052812,13.6809318 100.272206,12.9233391 99.2926077,12.379041 C98.3130091,11.834743 97.2262833,11.5625981 96.0323977,11.5625981 C95.0221867,11.5625981 94.0808679,11.753835 93.2084129,12.1363148 C92.335958,12.5187945 91.5783112,13.0557291 90.9354496,13.7471347 C90.2925881,14.4385403 89.7874902,15.2549752 89.4201408,16.1964637 C89.0527913,17.1379522 88.8691194,18.1824004 88.8691194,19.3298395 C88.8691194,20.4478571 89.0604443,21.48495 89.4431,22.4411493 C89.8257557,23.3973486 90.3461596,24.2284939 91.0043273,24.9346103 C91.6624951,25.6407267 92.4277949,26.1923719 93.3002498,26.5895623 C94.1727048,26.9867528 95.0987176,27.185345 96.0783161,27.185345 C96.6905652,27.185345 97.3028051,27.1044371 97.9150541,26.9426188 C98.5273032,26.7808004 99.0859721,26.5527871 99.5910776,26.2585719 C100.096183,25.9643568 100.540057,25.6260144 100.922713,25.2435347 C101.305368,24.861055 101.588529,24.4491599 101.772204,24.0078372 L106.731397,25.4200629 C105.935473,27.1559324 104.603851,28.5754992 102.736491,29.6788061 C100.869132,30.7821129 98.6650682,31.3337581 96.1242346,31.3337581 C94.2568749,31.3337581 92.5579092,31.0101263 91.0272865,30.3628529 C89.4966639,29.7155796 88.1880011,28.8403026 87.101259,27.7369957 C86.0145169,26.6336889 85.1726871,25.3612274 84.5757442,23.9195731 C83.9788014,22.4779188 83.6803344,20.9480229 83.6803344,19.3298395 L83.6803344,19.3298395 Z" id="Path"></path>
                                    <path d="M79.2359118,31.3337581 L74.1848822,31.3337581 L74.1848822,18.4030664 C74.1848822,16.2258742 73.8251912,14.6444914 73.1057986,13.6588706 C72.3864059,12.6732498 71.3226391,12.1804468 69.9144663,12.1804468 C69.1797674,12.1804468 68.4450795,12.3128416 67.7103806,12.5776353 C66.9756818,12.8424289 66.2869119,13.2175476 65.6440504,13.7030027 C65.0011888,14.1884577 64.4272139,14.7621686 63.9221085,15.4241527 C63.417003,16.0861369 63.0267,16.8143085 62.751188,17.6086894 L62.751188,31.3337581 L57.7001584,31.3337581 L57.7001584,8.25269403 L62.2920035,8.25269403 L62.2920035,12.8865597 C63.2103771,11.3272193 64.5419988,10.0988894 66.2869087,9.20153319 C68.0318185,8.30417694 69.9603742,7.85550555 72.0726335,7.85550555 C73.5114188,7.85550555 74.6899805,8.10558469 75.6083542,8.60575046 C76.5267278,9.10591624 77.2537626,9.78995623 77.7894806,10.657891 C78.3251985,11.5258257 78.7001954,12.5261422 78.9144826,13.6588706 C79.1287698,14.791599 79.2359118,15.9905078 79.2359118,17.255633 L79.2359118,31.3337581 Z" id="Path"></path>
                                    <path d="M38.0349777,31.3337581 C36.8717045,31.3337581 35.7926317,31.1498764 34.7977269,30.7821074 C33.8028222,30.4143385 32.9456864,29.9068249 32.2262937,29.2595516 C31.506901,28.6122782 30.9405791,27.8473303 30.527311,26.9646848 C30.1140429,26.0820393 29.9074119,25.1258544 29.9074119,24.0961013 C29.9074119,23.0075052 30.1523079,22.0218992 30.6421072,21.1392537 C31.1319064,20.2566082 31.8283293,19.4916603 32.7313967,18.8443869 C33.634464,18.1971136 34.7058838,17.6969553 35.9456882,17.3438971 C37.1854926,16.9908389 38.5553793,16.8143124 40.0553895,16.8143124 C41.1880503,16.8143124 42.3053881,16.9099309 43.4074364,17.1011708 C44.5094848,17.2924106 45.5043746,17.549845 46.3921357,17.8734817 L46.3921357,16.2847278 C46.3921357,14.5782799 45.8870378,13.2469762 44.8768269,12.2907769 C43.8666159,11.3345777 42.4125462,10.8564852 40.514574,10.8564852 C39.228851,10.8564852 37.9661062,11.0844985 36.7263019,11.540532 C35.4864975,11.9965655 34.2084467,12.6511844 32.8921112,13.5044084 L31.3308839,10.4151647 C34.4227417,8.41450156 37.6370011,7.41418501 40.9737586,7.41418501 C44.2799035,7.41418501 46.8513111,8.22326457 48.6880583,9.84144796 C50.5248055,11.4596314 51.4431653,13.7838963 51.4431653,16.8143124 L51.4431653,25.1552706 C51.4431653,26.1850236 51.8870392,26.714603 52.7748004,26.7440245 L52.7748004,30.8924376 C52.2850011,30.9807021 51.8640862,31.0395443 51.512043,31.0689658 C51.1599998,31.0983873 50.8156148,31.1130978 50.4788778,31.1130978 C49.4992793,31.1130978 48.7416325,30.8777292 48.2059145,30.406985 C47.6701966,29.9362407 47.3411177,29.3331087 47.2186678,28.5975708 L47.0809125,27.141213 C46.0094766,28.4946027 44.6855079,29.5316956 43.1089665,30.2525228 C41.5324252,30.9733499 39.8411125,31.3337581 38.0349777,31.3337581 Z M39.4125312,27.7590617 C40.6370294,27.7590617 41.7926322,27.545759 42.8793743,27.119147 C43.9661164,26.692535 44.8155992,26.0967582 45.4278483,25.3317988 C46.0707098,24.8022115 46.3921357,24.2432111 46.3921357,23.6547808 L46.3921357,20.6096691 C45.534987,20.2860324 44.6242802,20.0359532 43.6599879,19.8594241 C42.6956956,19.682895 41.7543768,19.5946318 40.8360032,19.5946318 C39.0298684,19.5946318 37.5528397,19.9697505 36.4048727,20.7199992 C35.2569057,21.4702479 34.6829308,22.4632091 34.6829308,23.6989128 C34.6829308,24.8463519 35.1268047,25.8098921 36.0145659,26.5895623 C36.902327,27.3692325 38.0349708,27.7590617 39.4125312,27.7590617 Z" id="Combined-Shape"></path>
                                    <path d="M25.6224955,23.2575923 C25.6224955,24.5227175 25.3546405,25.6554289 24.8189226,26.6557604 C24.2832046,27.656092 23.5638228,28.5019479 22.6607554,29.1933535 C21.757688,29.8847591 20.6939212,30.4143385 19.4694231,30.7821074 C18.2449249,31.1498764 16.9439152,31.3337581 15.5663548,31.3337581 L0,31.3337581 L0,0 L16.8061529,0 C17.9388137,0 18.9643155,0.235368599 19.8826891,0.706112858 C20.8010627,1.17685712 21.5816686,1.78734442 22.2245301,2.53759308 C22.8673916,3.28784175 23.3648366,4.14105292 23.7168798,5.0972522 C24.068923,6.05345147 24.2449419,7.01699168 24.2449419,7.98790171 C24.2449419,9.51782055 23.839333,10.952098 23.028103,12.2907769 C22.216873,13.6294559 21.0612702,14.6224172 19.56126,15.2696906 C21.4286196,15.7992779 22.9056484,16.7628181 23.9923905,18.1603401 C25.0791326,19.5578621 25.6224955,21.2569292 25.6224955,23.2575923 L25.6224955,23.2575923 Z M20.3418736,22.3308191 C20.3418736,21.6835458 20.2270787,21.0657032 19.9974853,20.4772729 C19.7678919,19.8888426 19.4617719,19.3739738 19.0791162,18.932651 C18.6964606,18.4913283 18.2296277,18.1382754 17.6786035,17.8734817 C17.1275793,17.6086881 16.5306455,17.4762932 15.8877839,17.4762932 L5.14286647,17.4762932 L5.14286647,27.0529489 L15.5663548,27.0529489 C16.2398288,27.0529489 16.8673746,26.9279093 17.4490113,26.6778264 C18.0306479,26.4277435 18.5357458,26.0894012 18.9643201,25.6627892 C19.3928945,25.2361772 19.7296264,24.7360189 19.974526,24.1622994 C20.2194257,23.5885798 20.3418736,22.9780925 20.3418736,22.3308191 L20.3418736,22.3308191 Z M5.14286647,4.2808092 L5.14286647,13.5044084 L14.6020673,13.5044084 C15.2449288,13.5044084 15.8342097,13.3867241 16.3699277,13.151352 C16.9056456,12.9159799 17.3801315,12.5997033 17.7933996,12.2025128 C18.2066678,11.8053224 18.5280937,11.3272299 18.7576871,10.7682211 C18.9872805,10.2092123 19.1020755,9.59136971 19.1020755,8.91467484 C19.1020755,7.56128509 18.7041195,6.45063951 17.9081958,5.58270479 C17.112272,4.71477006 16.1020762,4.2808092 14.877578,4.2808092 L5.14286647,4.2808092 Z"></path>
                                </g>
                                <rect id="divider" fill="#27A3EC" x="128.6925" y="0.145171229" width="2.41676056" height="42.0996564"></rect>
                            </g>
                        </g>
                    </g>
                </g>
            </g>
            <path d="M77.78,63 L77.78,48.8 L83.78,48.8 C84.3933364,48.8 84.9566641,48.9299987 85.47,49.19 C85.9833359,49.4500013 86.4266648,49.7899979 86.8,50.21 C87.1733352,50.6300021 87.4633323,51.106664 87.67,51.64 C87.8766677,52.173336 87.98,52.7133306 87.98,53.26 C87.98,53.7800026 87.9033341,54.2766643 87.75,54.75 C87.5966659,55.2233357 87.3833347,55.6499981 87.11,56.03 C86.8366653,56.4100019 86.5066686,56.7299987 86.12,56.99 C85.7333314,57.2500013 85.3000024,57.4266662 84.82,57.52 L88.3,63 L86.72,63 L83.38,57.76 L79.18,57.76 L79.18,63 L77.78,63 Z M79.18,56.52 L83.82,56.52 C84.2333354,56.52 84.6099983,56.4300009 84.95,56.25 C85.2900017,56.0699991 85.5799988,55.8266682 85.82,55.52 C86.0600012,55.2133318 86.246666,54.8666686 86.38,54.48 C86.513334,54.0933314 86.58,53.6866688 86.58,53.26 C86.58,52.8333312 86.5033341,52.4233353 86.35,52.03 C86.1966659,51.6366647 85.9900013,51.2933348 85.73,51 C85.4699987,50.7066652 85.1633351,50.4733342 84.81,50.3 C84.4566649,50.1266658 84.0866686,50.04 83.7,50.04 L79.18,50.04 L79.18,56.52 Z M94.76,63.2 C93.9999962,63.2 93.3033365,63.0566681 92.67,62.77 C92.0366635,62.4833319 91.486669,62.0900025 91.02,61.59 C90.553331,61.0899975 90.1900013,60.5133366 89.93,59.86 C89.6699987,59.2066634 89.54,58.5066704 89.54,57.76 C89.54,57.026663 89.6699987,56.3366699 89.93,55.69 C90.1900013,55.0433301 90.5499977,54.4766691 91.01,53.99 C91.4700023,53.5033309 92.0199968,53.1166681 92.66,52.83 C93.3000032,52.5433319 93.9933296,52.4 94.74,52.4 C95.5000038,52.4 96.1966635,52.5433319 96.83,52.83 C97.4633365,53.1166681 98.0066644,53.5066642 98.46,54 C98.9133356,54.4933358 99.2666654,55.0599968 99.52,55.7 C99.7733346,56.3400032 99.9,57.0199964 99.9,57.74 L99.9,58.06 C99.9,58.1666672 99.8933334,58.2399998 99.88,58.28 L90.96,58.28 C91.0000002,58.8400028 91.1299989,59.3566643 91.35,59.83 C91.5700011,60.3033357 91.8533316,60.7133316 92.2,61.06 C92.5466684,61.4066684 92.9433311,61.6766657 93.39,61.87 C93.8366689,62.0633343 94.3133308,62.16 94.82,62.16 C95.153335,62.16 95.486665,62.1133338 95.82,62.02 C96.153335,61.9266662 96.4599986,61.8000008 96.74,61.64 C97.0200014,61.4799992 97.2733322,61.2833345 97.5,61.05 C97.7266678,60.8166655 97.8999994,60.5600014 98.02,60.28 L99.2,60.6 C99.0399992,60.9866686 98.8133348,61.3366651 98.52,61.65 C98.2266652,61.9633349 97.8866686,62.2366655 97.5,62.47 C97.1133314,62.7033345 96.686669,62.8833327 96.22,63.01 C95.753331,63.1366673 95.2666692,63.2 94.76,63.2 Z M98.6,57.24 C98.5599998,56.6799972 98.4300011,56.1700023 98.21,55.71 C97.9899989,55.2499977 97.7100017,54.853335 97.37,54.52 C97.0299983,54.186665 96.6366689,53.9266676 96.19,53.74 C95.7433311,53.5533324 95.2666692,53.46 94.76,53.46 C94.2533308,53.46 93.7733356,53.5533324 93.32,53.74 C92.8666644,53.9266676 92.4700017,54.186665 92.13,54.52 C91.7899983,54.853335 91.5166677,55.253331 91.31,55.72 C91.1033323,56.186669 90.9800002,56.6933306 90.94,57.24 L98.6,57.24 Z M105.46,63.2 C104.646663,63.2 103.853337,63.066668 103.08,62.8 C102.306663,62.533332 101.640003,62.1466692 101.08,61.64 L101.7,60.72 C102.28667,61.2000024 102.88333,61.5599988 103.49,61.8 C104.09667,62.0400012 104.746663,62.16 105.44,62.16 C106.280004,62.16 106.949997,61.9900017 107.45,61.65 C107.950003,61.3099983 108.2,60.8266698 108.2,60.2 C108.2,59.9066652 108.133334,59.6633343 108,59.47 C107.866666,59.2766657 107.670001,59.1066674 107.41,58.96 C107.149999,58.8133326 106.823335,58.6833339 106.43,58.57 C106.036665,58.4566661 105.580003,58.3400006 105.06,58.22 C104.459997,58.0733326 103.940002,57.9266674 103.5,57.78 C103.059998,57.6333326 102.696668,57.4666676 102.41,57.28 C102.123332,57.0933324 101.910001,56.8633347 101.77,56.59 C101.629999,56.3166653 101.56,55.9733354 101.56,55.56 C101.56,55.0399974 101.663332,54.580002 101.87,54.18 C102.076668,53.779998 102.356665,53.4500013 102.71,53.19 C103.063335,52.9299987 103.476664,52.733334 103.95,52.6 C104.423336,52.466666 104.926664,52.4 105.46,52.4 C106.260004,52.4 106.986663,52.5299987 107.64,52.79 C108.293337,53.0500013 108.819998,53.3933312 109.22,53.82 L108.56,54.62 C108.173331,54.219998 107.703336,53.920001 107.15,53.72 C106.596664,53.519999 106.020003,53.42 105.42,53.42 C105.059998,53.42 104.726668,53.4566663 104.42,53.53 C104.113332,53.6033337 103.843334,53.7199992 103.61,53.88 C103.376666,54.0400008 103.193334,54.2433321 103.06,54.49 C102.926666,54.7366679 102.86,55.026665 102.86,55.36 C102.86,55.6400014 102.906666,55.8666658 103,56.04 C103.093334,56.2133342 103.246666,56.3633327 103.46,56.49 C103.673334,56.6166673 103.943332,56.7299995 104.27,56.83 C104.596668,56.9300005 104.993331,57.0333328 105.46,57.14 C106.12667,57.3000008 106.713331,57.4599992 107.22,57.62 C107.726669,57.7800008 108.149998,57.9666656 108.49,58.18 C108.830002,58.3933344 109.086666,58.6533318 109.26,58.96 C109.433334,59.2666682 109.52,59.6399978 109.52,60.08 C109.52,61.0400048 109.153337,61.7999972 108.42,62.36 C107.686663,62.9200028 106.700006,63.2 105.46,63.2 Z M117.06,63.2 C116.179996,63.2 115.403337,62.9766689 114.73,62.53 C114.056663,62.0833311 113.513335,61.5200034 113.1,60.84 L113.1,67.26 L111.74,67.26 L111.74,52.58 L112.96,52.58 L112.96,54.6 C113.386669,53.9466634 113.939997,53.4166687 114.62,53.01 C115.300003,52.6033313 116.039996,52.4 116.84,52.4 C117.560004,52.4 118.219997,52.5499985 118.82,52.85 C119.420003,53.1500015 119.939998,53.5499975 120.38,54.05 C120.820002,54.5500025 121.163332,55.1266634 121.41,55.78 C121.656668,56.4333366 121.78,57.1066632 121.78,57.8 C121.78,58.533337 121.666668,59.2266634 121.44,59.88 C121.213332,60.5333366 120.890002,61.1066642 120.47,61.6 C120.049998,62.0933358 119.550003,62.4833319 118.97,62.77 C118.389997,63.0566681 117.753337,63.2 117.06,63.2 Z M116.68,62 C117.240003,62 117.749998,61.8800012 118.21,61.64 C118.670002,61.3999988 119.063332,61.0833353 119.39,60.69 C119.716668,60.2966647 119.966666,59.8500025 120.14,59.35 C120.313334,58.8499975 120.4,58.333336 120.4,57.8 C120.4,57.2399972 120.300001,56.7066692 120.1,56.2 C119.899999,55.6933308 119.626668,55.2466686 119.28,54.86 C118.933332,54.4733314 118.523336,54.1666678 118.05,53.94 C117.576664,53.7133322 117.066669,53.6 116.52,53.6 C116.173332,53.6 115.810002,53.6699993 115.43,53.81 C115.049998,53.9500007 114.696668,54.1366655 114.37,54.37 C114.043332,54.6033345 113.763335,54.8766651 113.53,55.19 C113.296666,55.5033349 113.153334,55.8333316 113.1,56.18 L113.1,59.38 C113.260001,59.7533352 113.463332,60.0999984 113.71,60.42 C113.956668,60.7400016 114.236665,61.0166655 114.55,61.25 C114.863335,61.4833345 115.199998,61.666666 115.56,61.8 C115.920002,61.933334 116.293331,62 116.68,62 Z M128.52,63.2 C127.759996,63.2 127.06667,63.0566681 126.44,62.77 C125.81333,62.4833319 125.270002,62.0933358 124.81,61.6 C124.349998,61.1066642 123.993335,60.5333366 123.74,59.88 C123.486665,59.2266634 123.36,58.5400036 123.36,57.82 C123.36,57.086663 123.489999,56.3933366 123.75,55.74 C124.010001,55.0866634 124.369998,54.5133358 124.83,54.02 C125.290002,53.5266642 125.83333,53.1333348 126.46,52.84 C127.08667,52.5466652 127.77333,52.4 128.52,52.4 C129.26667,52.4 129.956663,52.5466652 130.59,52.84 C131.223336,53.1333348 131.769998,53.5266642 132.23,54.02 C132.690002,54.5133358 133.049999,55.0866634 133.31,55.74 C133.570001,56.3933366 133.7,57.086663 133.7,57.82 C133.7,58.5400036 133.573335,59.2266634 133.32,59.88 C133.066665,60.5333366 132.710002,61.1066642 132.25,61.6 C131.789998,62.0933358 131.243336,62.4833319 130.61,62.77 C129.976664,63.0566681 129.280004,63.2 128.52,63.2 Z M124.74,57.84 C124.74,58.4266696 124.839999,58.9699975 125.04,59.47 C125.240001,59.9700025 125.509998,60.4099981 125.85,60.79 C126.190002,61.1700019 126.589998,61.4666656 127.05,61.68 C127.510002,61.8933344 127.999997,62 128.52,62 C129.040003,62 129.529998,61.8900011 129.99,61.67 C130.450002,61.4499989 130.853332,61.1500019 131.2,60.77 C131.546668,60.3899981 131.819999,59.9466692 132.02,59.44 C132.220001,58.9333308 132.32,58.3866696 132.32,57.8 C132.32,57.2266638 132.220001,56.6833359 132.02,56.17 C131.819999,55.6566641 131.546668,55.2100019 131.2,54.83 C130.853332,54.4499981 130.450002,54.1500011 129.99,53.93 C129.529998,53.7099989 129.040003,53.6 128.52,53.6 C127.999997,53.6 127.513336,53.7099989 127.06,53.93 C126.606664,54.1500011 126.206668,54.4533314 125.86,54.84 C125.513332,55.2266686 125.240001,55.6766641 125.04,56.19 C124.839999,56.7033359 124.74,57.2533304 124.74,57.84 Z M144.74,63 L143.38,63 L143.38,57.18 C143.38,55.9399938 143.196668,55.0400028 142.83,54.48 C142.463331,53.9199972 141.900004,53.64 141.14,53.64 C140.739998,53.64 140.340002,53.7133326 139.94,53.86 C139.539998,54.0066674 139.170002,54.213332 138.83,54.48 C138.489998,54.746668 138.186668,55.0633315 137.92,55.43 C137.653332,55.7966685 137.460001,56.1933312 137.34,56.62 L137.34,63 L135.98,63 L135.98,52.58 L137.22,52.58 L137.22,54.94 C137.646669,54.1799962 138.256663,53.566669 139.05,53.1 C139.843337,52.633331 140.706662,52.4 141.64,52.4 C142.213336,52.4 142.699998,52.5066656 143.1,52.72 C143.500002,52.9333344 143.819999,53.2333314 144.06,53.62 C144.300001,54.0066686 144.473333,54.4799972 144.58,55.04 C144.686667,55.6000028 144.74,56.2199966 144.74,56.9 L144.74,63 Z M151.1,63.2 C150.286663,63.2 149.493337,63.066668 148.72,62.8 C147.946663,62.533332 147.280003,62.1466692 146.72,61.64 L147.34,60.72 C147.92667,61.2000024 148.52333,61.5599988 149.13,61.8 C149.73667,62.0400012 150.386663,62.16 151.08,62.16 C151.920004,62.16 152.589998,61.9900017 153.09,61.65 C153.590002,61.3099983 153.84,60.8266698 153.84,60.2 C153.84,59.9066652 153.773334,59.6633343 153.64,59.47 C153.506666,59.2766657 153.310001,59.1066674 153.05,58.96 C152.789999,58.8133326 152.463335,58.6833339 152.07,58.57 C151.676665,58.4566661 151.220003,58.3400006 150.7,58.22 C150.099997,58.0733326 149.580002,57.9266674 149.14,57.78 C148.699998,57.6333326 148.336668,57.4666676 148.05,57.28 C147.763332,57.0933324 147.550001,56.8633347 147.41,56.59 C147.269999,56.3166653 147.2,55.9733354 147.2,55.56 C147.2,55.0399974 147.303332,54.580002 147.51,54.18 C147.716668,53.779998 147.996665,53.4500013 148.35,53.19 C148.703335,52.9299987 149.116664,52.733334 149.59,52.6 C150.063336,52.466666 150.566664,52.4 151.1,52.4 C151.900004,52.4 152.626663,52.5299987 153.28,52.79 C153.933337,53.0500013 154.459998,53.3933312 154.86,53.82 L154.2,54.62 C153.813331,54.219998 153.343336,53.920001 152.79,53.72 C152.236664,53.519999 151.660003,53.42 151.06,53.42 C150.699998,53.42 150.366668,53.4566663 150.06,53.53 C149.753332,53.6033337 149.483335,53.7199992 149.25,53.88 C149.016665,54.0400008 148.833334,54.2433321 148.7,54.49 C148.566666,54.7366679 148.5,55.026665 148.5,55.36 C148.5,55.6400014 148.546666,55.8666658 148.64,56.04 C148.733334,56.2133342 148.886666,56.3633327 149.1,56.49 C149.313334,56.6166673 149.583332,56.7299995 149.91,56.83 C150.236668,56.9300005 150.633331,57.0333328 151.1,57.14 C151.76667,57.3000008 152.353331,57.4599992 152.86,57.62 C153.366669,57.7800008 153.789998,57.9666656 154.13,58.18 C154.470002,58.3933344 154.726666,58.6533318 154.9,58.96 C155.073334,59.2666682 155.16,59.6399978 155.16,60.08 C155.16,61.0400048 154.793337,61.7999972 154.06,62.36 C153.326663,62.9200028 152.340006,63.2 151.1,63.2 Z M157.38,63 L157.38,52.58 L158.74,52.58 L158.74,63 L157.38,63 Z M157.38,50.4 L157.38,48.4 L158.74,48.4 L158.74,50.4 L157.38,50.4 Z M166.84,63.2 C166.013329,63.2 165.25667,62.9933354 164.57,62.58 C163.88333,62.1666646 163.346669,61.6333366 162.96,60.98 L162.96,63 L161.74,63 L161.74,48.4 L163.1,48.4 L163.1,54.76 C163.566669,54.0533298 164.126663,53.4833355 164.78,53.05 C165.433337,52.6166645 166.193329,52.4 167.06,52.4 C167.793337,52.4 168.449997,52.5533318 169.03,52.86 C169.610003,53.1666682 170.103331,53.5766641 170.51,54.09 C170.916669,54.6033359 171.229999,55.1833301 171.45,55.83 C171.670001,56.4766699 171.78,57.1399966 171.78,57.82 C171.78,58.553337 171.653335,59.2466634 171.4,59.9 C171.146665,60.5533366 170.800002,61.1233309 170.36,61.61 C169.919998,62.0966691 169.39667,62.4833319 168.79,62.77 C168.18333,63.0566681 167.533337,63.2 166.84,63.2 Z M166.52,62 C167.093336,62 167.616664,61.8833345 168.09,61.65 C168.563336,61.4166655 168.969998,61.1033353 169.31,60.71 C169.650002,60.3166647 169.916666,59.8700025 170.11,59.37 C170.303334,58.8699975 170.4,58.353336 170.4,57.82 C170.4,57.2733306 170.310001,56.7466692 170.13,56.24 C169.949999,55.7333308 169.696668,55.2833353 169.37,54.89 C169.043332,54.4966647 168.650002,54.1833345 168.19,53.95 C167.729998,53.7166655 167.226669,53.6 166.68,53.6 C166.266665,53.6 165.880002,53.6699993 165.52,53.81 C165.159998,53.9500007 164.826668,54.1399988 164.52,54.38 C164.213332,54.6200012 163.940001,54.8966651 163.7,55.21 C163.459999,55.5233349 163.260001,55.8533316 163.1,56.2 L163.1,59.44 C163.153334,59.8000018 163.296666,60.1366651 163.53,60.45 C163.763334,60.7633349 164.043332,61.0333322 164.37,61.26 C164.696668,61.4866678 165.049998,61.666666 165.43,61.8 C165.810002,61.933334 166.173332,62 166.52,62 Z M174.14,48.4 L175.5,48.4 L175.5,60.64 C175.5,61.0266686 175.606666,61.3299989 175.82,61.55 C176.033334,61.7700011 176.333331,61.88 176.72,61.88 C176.866667,61.88 177.039999,61.8600002 177.24,61.82 C177.440001,61.7799998 177.626666,61.726667 177.8,61.66 L178.04,62.76 C177.786665,62.8666672 177.476668,62.953333 177.11,63.02 C176.743332,63.086667 176.426668,63.12 176.16,63.12 C175.53333,63.12 175.040002,62.9433351 174.68,62.59 C174.319998,62.2366649 174.14,61.7400032 174.14,61.1 L174.14,48.4 Z M184.02,63.2 C183.259996,63.2 182.563336,63.0566681 181.93,62.77 C181.296663,62.4833319 180.746669,62.0900025 180.28,61.59 C179.813331,61.0899975 179.450001,60.5133366 179.19,59.86 C178.929999,59.2066634 178.8,58.5066704 178.8,57.76 C178.8,57.026663 178.929999,56.3366699 179.19,55.69 C179.450001,55.0433301 179.809998,54.4766691 180.27,53.99 C180.730002,53.5033309 181.279997,53.1166681 181.92,52.83 C182.560003,52.5433319 183.25333,52.4 184,52.4 C184.760004,52.4 185.456663,52.5433319 186.09,52.83 C186.723336,53.1166681 187.266664,53.5066642 187.72,54 C188.173336,54.4933358 188.526665,55.0599968 188.78,55.7 C189.033335,56.3400032 189.16,57.0199964 189.16,57.74 L189.16,58.06 C189.16,58.1666672 189.153333,58.2399998 189.14,58.28 L180.22,58.28 C180.26,58.8400028 180.389999,59.3566643 180.61,59.83 C180.830001,60.3033357 181.113332,60.7133316 181.46,61.06 C181.806668,61.4066684 182.203331,61.6766657 182.65,61.87 C183.096669,62.0633343 183.573331,62.16 184.08,62.16 C184.413335,62.16 184.746665,62.1133338 185.08,62.02 C185.413335,61.9266662 185.719999,61.8000008 186,61.64 C186.280001,61.4799992 186.533332,61.2833345 186.76,61.05 C186.986668,60.8166655 187.159999,60.5600014 187.28,60.28 L188.46,60.6 C188.299999,60.9866686 188.073335,61.3366651 187.78,61.65 C187.486665,61.9633349 187.146669,62.2366655 186.76,62.47 C186.373331,62.7033345 185.946669,62.8833327 185.48,63.01 C185.013331,63.1366673 184.526669,63.2 184.02,63.2 Z M187.86,57.24 C187.82,56.6799972 187.690001,56.1700023 187.47,55.71 C187.249999,55.2499977 186.970002,54.853335 186.63,54.52 C186.289998,54.186665 185.896669,53.9266676 185.45,53.74 C185.003331,53.5533324 184.526669,53.46 184.02,53.46 C183.513331,53.46 183.033336,53.5533324 182.58,53.74 C182.126664,53.9266676 181.730002,54.186665 181.39,54.52 C181.049998,54.853335 180.776668,55.253331 180.57,55.72 C180.363332,56.186669 180.24,56.6933306 180.2,57.24 L187.86,57.24 Z M196.64,63 L196.64,48.8 L202.52,48.8 C203.133336,48.8 203.696664,48.9299987 204.21,49.19 C204.723336,49.4500013 205.166665,49.7899979 205.54,50.21 C205.913335,50.6300021 206.206666,51.106664 206.42,51.64 C206.633334,52.173336 206.74,52.7133306 206.74,53.26 C206.74,53.8466696 206.640001,54.4099973 206.44,54.95 C206.239999,55.4900027 205.960002,55.9666646 205.6,56.38 C205.239998,56.7933354 204.810002,57.1266654 204.31,57.38 C203.809997,57.6333346 203.253336,57.76 202.64,57.76 L198.04,57.76 L198.04,63 L196.64,63 Z M198.04,56.52 L202.58,56.52 C202.993335,56.52 203.369998,56.4300009 203.71,56.25 C204.050002,56.0699991 204.339999,55.8300015 204.58,55.53 C204.820001,55.2299985 205.006666,54.8833353 205.14,54.49 C205.273334,54.0966647 205.34,53.6866688 205.34,53.26 C205.34,52.8199978 205.263334,52.4033353 205.11,52.01 C204.956666,51.6166647 204.750001,51.2733348 204.49,50.98 C204.229999,50.6866652 203.923335,50.4566675 203.57,50.29 C203.216665,50.1233325 202.846669,50.04 202.46,50.04 L198.04,50.04 L198.04,56.52 Z M213.06,63.2 C212.299996,63.2 211.60667,63.0566681 210.98,62.77 C210.35333,62.4833319 209.810002,62.0933358 209.35,61.6 C208.889998,61.1066642 208.533335,60.5333366 208.28,59.88 C208.026665,59.2266634 207.9,58.5400036 207.9,57.82 C207.9,57.086663 208.029999,56.3933366 208.29,55.74 C208.550001,55.0866634 208.909998,54.5133358 209.37,54.02 C209.830002,53.5266642 210.37333,53.1333348 211,52.84 C211.62667,52.5466652 212.31333,52.4 213.06,52.4 C213.80667,52.4 214.496663,52.5466652 215.13,52.84 C215.763336,53.1333348 216.309998,53.5266642 216.77,54.02 C217.230002,54.5133358 217.589999,55.0866634 217.85,55.74 C218.110001,56.3933366 218.24,57.086663 218.24,57.82 C218.24,58.5400036 218.113335,59.2266634 217.86,59.88 C217.606665,60.5333366 217.250002,61.1066642 216.79,61.6 C216.329998,62.0933358 215.783336,62.4833319 215.15,62.77 C214.516663,63.0566681 213.820004,63.2 213.06,63.2 Z M209.28,57.84 C209.28,58.4266696 209.379999,58.9699975 209.58,59.47 C209.780001,59.9700025 210.049998,60.4099981 210.39,60.79 C210.730002,61.1700019 211.129998,61.4666656 211.59,61.68 C212.050002,61.8933344 212.539997,62 213.06,62 C213.580003,62 214.069998,61.8900011 214.53,61.67 C214.990002,61.4499989 215.393332,61.1500019 215.74,60.77 C216.086668,60.3899981 216.359999,59.9466692 216.56,59.44 C216.760001,58.9333308 216.86,58.3866696 216.86,57.8 C216.86,57.2266638 216.760001,56.6833359 216.56,56.17 C216.359999,55.6566641 216.086668,55.2100019 215.74,54.83 C215.393332,54.4499981 214.990002,54.1500011 214.53,53.93 C214.069998,53.7099989 213.580003,53.6 213.06,53.6 C212.539997,53.6 212.053336,53.7099989 211.6,53.93 C211.146664,54.1500011 210.746668,54.4533314 210.4,54.84 C210.053332,55.2266686 209.780001,55.6766641 209.58,56.19 C209.379999,56.7033359 209.28,57.2533304 209.28,57.84 Z M225.72,53.78 C224.799995,53.8066668 224.000003,54.0599976 223.32,54.54 C222.639997,55.0200024 222.160001,55.6799958 221.88,56.52 L221.88,63 L220.52,63 L220.52,52.58 L221.8,52.58 L221.8,55.08 C222.186669,54.279996 222.706663,53.6533356 223.36,53.2 C224.013337,52.7466644 224.71333,52.52 225.46,52.52 C225.566667,52.52 225.653333,52.5266666 225.72,52.54 L225.72,53.78 Z M232.54,62.5 C232.46,62.5400002 232.343334,62.593333 232.19,62.66 C232.036666,62.726667 231.860001,62.793333 231.66,62.86 C231.459999,62.926667 231.233335,62.9866664 230.98,63.04 C230.726665,63.0933336 230.460001,63.12 230.18,63.12 C229.886665,63.12 229.606668,63.0800004 229.34,63 C229.073332,62.9199996 228.840001,62.7966675 228.64,62.63 C228.439999,62.4633325 228.280001,62.2533346 228.16,62 C228.039999,61.7466654 227.98,61.453335 227.98,61.12 L227.98,53.66 L226.54,53.66 L226.54,52.58 L227.98,52.58 L227.98,49.06 L229.34,49.06 L229.34,52.58 L231.74,52.58 L231.74,53.66 L229.34,53.66 L229.34,60.74 C229.366667,61.1266686 229.503332,61.4099991 229.75,61.59 C229.996668,61.7700009 230.279998,61.86 230.6,61.86 C230.986669,61.86 231.326665,61.7966673 231.62,61.67 C231.913335,61.5433327 232.1,61.4533336 232.18,61.4 L232.54,62.5 Z M236.86,63.2 C236.366664,63.2 235.910002,63.1166675 235.49,62.95 C235.069998,62.7833325 234.703335,62.5533348 234.39,62.26 C234.076665,61.9666652 233.833334,61.6233353 233.66,61.23 C233.486666,60.8366647 233.4,60.4133356 233.4,59.96 C233.4,59.5066644 233.506666,59.0866686 233.72,58.7 C233.933334,58.3133314 234.233331,57.9800014 234.62,57.7 C235.006669,57.4199986 235.466664,57.2033341 236,57.05 C236.533336,56.8966659 237.119997,56.82 237.76,56.82 C238.293336,56.82 238.833331,56.8666662 239.38,56.96 C239.926669,57.0533338 240.413331,57.1866658 240.84,57.36 L240.84,56.42 C240.84,55.4999954 240.580003,54.7700027 240.06,54.23 C239.539997,53.6899973 238.820005,53.42 237.9,53.42 C237.366664,53.42 236.820003,53.5266656 236.26,53.74 C235.699997,53.9533344 235.133336,54.259998 234.56,54.66 L234.08,53.76 C235.426673,52.8533288 236.733327,52.4 238,52.4 C239.306673,52.4 240.33333,52.766663 241.08,53.5 C241.82667,54.233337 242.2,55.2466602 242.2,56.54 L242.2,61.24 C242.2,61.6133352 242.366665,61.8 242.7,61.8 L242.7,63 C242.473332,63.0400002 242.300001,63.06 242.18,63.06 C241.833332,63.06 241.563334,62.9733342 241.37,62.8 C241.176666,62.6266658 241.073333,62.3866682 241.06,62.08 L241.02,61.26 C240.539998,61.8866698 239.93667,62.366665 239.21,62.7 C238.48333,63.033335 237.700004,63.2 236.86,63.2 Z M237.18,62.16 C237.88667,62.16 238.536664,62.026668 239.13,61.76 C239.723336,61.493332 240.173332,61.1400022 240.48,60.7 C240.600001,60.5799994 240.69,60.4500007 240.75,60.31 C240.81,60.1699993 240.84,60.0400006 240.84,59.92 L240.84,58.22 C240.386664,58.0466658 239.916669,57.9133338 239.43,57.82 C238.943331,57.7266662 238.446669,57.68 237.94,57.68 C236.979995,57.68 236.200003,57.879998 235.6,58.28 C234.999997,58.680002 234.7,59.2066634 234.7,59.86 C234.7,60.1800016 234.763333,60.4799986 234.89,60.76 C235.016667,61.0400014 235.189999,61.2833323 235.41,61.49 C235.630001,61.6966677 235.893332,61.8599994 236.2,61.98 C236.506668,62.1000006 236.833332,62.16 237.18,62.16 Z M245.2,48.4 L246.56,48.4 L246.56,60.64 C246.56,61.0266686 246.666666,61.3299989 246.88,61.55 C247.093334,61.7700011 247.393331,61.88 247.78,61.88 C247.926667,61.88 248.099999,61.8600002 248.3,61.82 C248.500001,61.7799998 248.686666,61.726667 248.86,61.66 L249.1,62.76 C248.846665,62.8666672 248.536669,62.953333 248.17,63.02 C247.803332,63.086667 247.486668,63.12 247.22,63.12 C246.59333,63.12 246.100002,62.9433351 245.74,62.59 C245.379998,62.2366649 245.2,61.7400032 245.2,61.1 L245.2,48.4 Z" id="Responsible-Portal" fill="#2F4853"></path>
        </g>
    </g>
</svg>